<svg xmlns="http://www.w3.org/2000/svg" width="75.568" height="75.568" viewBox="0 0 75.568 75.568">
    <path d="M21.868 8.087a2.03 2.03 0 0 0 .84-.182l7.437-3.381A2.028 2.028 0 1 0 28.467.831L21.03 4.212a2.028 2.028 0 0 0 .838 3.875m0 7.437a2.015 2.015 0 0 0 .84-.183l7.437-3.381a2.027 2.027 0 0 0-.84-3.873 1.989 1.989 0 0 0-.838.182L21.03 11.65a2.028 2.028 0 0 0 .838 3.874m0 7.436a2.014 2.014 0 0 0 .84-.182l7.437-3.38a2.028 2.028 0 0 0-.84-3.874 2 2 0 0 0-.838.182l-7.437 3.381a2.027 2.027 0 0 0 .838 3.873M1.422 4.524 8.859 7.9a2.028 2.028 0 1 0 1.679-3.693L3.1.831a2.028 2.028 0 0 0-1.678 3.693m0 14.874 7.437 3.38a2.027 2.027 0 1 0 1.679-3.691L3.1 15.706a2 2 0 0 0-.838-.182 2.028 2.028 0 0 0-.84 3.874m0-7.438 7.437 3.381a2.027 2.027 0 1 0 1.679-3.691L3.1 8.269a1.986 1.986 0 0 0-.838-.182 2.027 2.027 0 0 0-.84 3.873" transform="translate(22 28.568)" style="fill-rule:evenodd;fill:#06617a"/>
    <path d="M21.868 8.087a2.03 2.03 0 0 0 .84-.182l7.437-3.381A2.028 2.028 0 1 0 28.467.831L21.03 4.212a2.028 2.028 0 0 0 .838 3.875zm0 7.437a2.015 2.015 0 0 0 .84-.183l7.437-3.381a2.027 2.027 0 0 0-.84-3.873 1.989 1.989 0 0 0-.838.182L21.03 11.65a2.028 2.028 0 0 0 .838 3.874zm0 7.436a2.014 2.014 0 0 0 .84-.182l7.437-3.38a2.028 2.028 0 0 0-.84-3.874 2 2 0 0 0-.838.182l-7.437 3.381a2.027 2.027 0 0 0 .838 3.873zM1.422 4.524 8.859 7.9a2.028 2.028 0 1 0 1.679-3.693L3.1.831a2.028 2.028 0 0 0-1.678 3.693zm0 14.874 7.437 3.38a2.027 2.027 0 1 0 1.679-3.691L3.1 15.706a2 2 0 0 0-.838-.182 2.028 2.028 0 0 0-.84 3.874zm0-7.438 7.437 3.381a2.027 2.027 0 1 0 1.679-3.691L3.1 8.269a1.986 1.986 0 0 0-.838-.182 2.027 2.027 0 0 0-.84 3.873z" transform="translate(22 28.568)" style="fill:none;fill-rule:evenodd"/>
    <path d="M36.783-1a37.793 37.793 0 0 1 14.709 72.6A37.793 37.793 0 0 1 22.076 1.97 37.547 37.547 0 0 1 36.783-1zm0 72.568A34.784 34.784 0 1 0 2 36.784a34.824 34.824 0 0 0 34.783 34.784z" transform="translate(1 1)" style="fill:#06617a"/>
    <path d="m54.413 49.173-16 6.577V29.04l16-6.578zm-19 6.577-16-6.577V22.462l16 6.578zM55.4 18.6a2.172 2.172 0 0 0-.781.146h-.029a.111.111 0 0 0-.029.007l-17.77 7.35-17.767-7.35a.051.051 0 0 0-.018-.007 1.774 1.774 0 0 0-.7-.146 1.89 1.89 0 0 0-1.886 1.917V49.89a1.885 1.885 0 0 0 1.164 1.773l18.465 7.649a1.886 1.886 0 0 0 .749.155 1.916 1.916 0 0 0 .755-.155l18.576-7.649a2.005 2.005 0 0 0 1.291-1.773V20.519A2 2 0 0 0 55.4 18.6z" transform="translate(1 1)" style="fill-rule:evenodd;fill:#06617a"/>
</svg>
