<svg width="16" height="17" viewBox="0 0 16 17" fill="none" xmlns="http://www.w3.org/2000/svg">
<path d="M15.5 8.5C15.5 4.21875 12.0312 0.75 7.75 0.75C3.46875 0.75 0 4.21875 0 8.5C0 11.8125 2.03125 14.5938 4.90625 15.7188C4.84375 15.125 4.78125 14.1875 4.9375 13.5C5.09375 12.9062 5.84375 9.65625 5.84375 9.65625C5.84375 9.65625 5.625 9.1875 5.625 8.5C5.625 7.4375 6.25 6.625 7.03125 6.625C7.6875 6.625 8 7.125 8 7.71875C8 8.375 7.5625 9.375 7.34375 10.3125C7.1875 11.0625 7.75 11.6875 8.5 11.6875C9.875 11.6875 10.9375 10.25 10.9375 8.15625C10.9375 6.28125 9.59375 5 7.71875 5C5.5 5 4.21875 6.65625 4.21875 8.34375C4.21875 9.03125 4.46875 9.75 4.78125 10.125C4.84375 10.1875 4.84375 10.2812 4.84375 10.3438C4.78125 10.5938 4.625 11.125 4.625 11.2188C4.59375 11.375 4.5 11.4062 4.34375 11.3438C3.375 10.875 2.78125 9.46875 2.78125 8.3125C2.78125 5.875 4.5625 3.625 7.90625 3.625C10.5938 3.625 12.6875 5.5625 12.6875 8.125C12.6875 10.7812 11 12.9375 8.65625 12.9375C7.875 12.9375 7.125 12.5312 6.875 12.0312C6.875 12.0312 6.5 13.5312 6.40625 13.875C6.21875 14.5625 5.75 15.4062 5.4375 15.9062C6.15625 16.1562 6.9375 16.25 7.75 16.25C12.0312 16.25 15.5 12.7812 15.5 8.5Z" fill="#4F4F4F"/>
</svg>
